{"glyphs":{"S":{"x_min":-8,"x_max":1043,"ha":1215,"o":"m 869 -6 l -8 -6 l -8 352 l 686 352 l 686 690 l 166 690 l 166 864 l -8 864 l -8 1568 l 166 1568 l 166 1742 l 1043 1742 l 1043 1385 l 349 1385 l 349 1047 l 869 1047 l 869 873 l 1043 873 l 1043 169 l 869 169 l 869 -6 m 2 1736 l 166 1736 l 166 1568 l 2 1568 l 2 1736 m -8 864 l 166 864 l 166 690 l -8 690 l -8 864 m 869 1047 l 1043 1047 l 1043 873 l 869 873 l 869 1047 m 869 169 l 1043 169 l 1043 0 l 869 0 l 869 169 "},"/":{"x_min":-8,"x_max":1043,"ha":1215,"o":"m 349 -6 l -8 -6 l -8 526 l 166 526 l 166 873 l 339 873 l 339 1221 l 513 1221 l 513 1568 l 686 1568 l 686 1742 l 1043 1742 l 1043 1385 l 870 1385 l 870 1037 l 696 1037 l 696 690 l 523 690 l 523 343 l 349 343 l 349 -6 "},"K":{"x_min":-8,"x_max":1043,"ha":1215,"o":"m 349 -6 l -8 -6 l -8 1742 l 349 1742 l 349 1047 l 686 1047 l 686 1742 l 1043 1742 l 1043 1037 l 869 1037 l 869 700 l 1043 700 l 1043 -6 l 686 -6 l 686 690 l 349 690 l 349 -6 "},"7":{"x_min":-8,"x_max":870,"ha":1042,"o":"m 870 -6 l 513 -6 l 513 1385 l -8 1385 l -8 1742 l 870 1742 l 870 -6 "},"d":{"x_min":-8,"x_max":870,"ha":1042,"o":"m 349 352 l 513 352 l 513 864 l 349 864 l 349 352 m 166 -6 l 166 169 l -8 169 l -8 1047 l 166 1047 l 166 1221 l 513 1221 l 513 1742 l 870 1742 l 870 -6 l 166 -6 m 2 1215 l 166 1215 l 166 1047 l 2 1047 l 2 1215 m -8 169 l 166 169 l 166 -6 l -8 -6 l -8 169 "},",":{"x_min":-8,"x_max":349,"ha":521,"o":"m 349 -353 l -8 -353 l -8 353 l 349 353 l 349 -353 "},"Y":{"x_min":-8,"x_max":1043,"ha":1215,"o":"m 696 -6 l 339 -6 l 339 690 l -8 690 l -8 1742 l 349 1742 l 349 1047 l 686 1047 l 686 1742 l 1043 1742 l 1043 690 l 696 690 l 696 -6 "},"E":{"x_min":-8,"x_max":869.78125,"ha":1042,"o":"m 869 -6 l -8 -6 l -8 1742 l 869 1742 l 869 1385 l 349 1385 l 349 1047 l 869 1047 l 869 690 l 349 690 l 349 352 l 869 352 l 869 -6 "},"y":{"x_min":-8,"x_max":870,"ha":1042,"o":"m 696 -526 l 166 -526 l 166 -169 l 513 -169 l 513 -6 l 166 -6 l 166 169 l -8 169 l -8 1221 l 349 1221 l 349 352 l 513 352 l 513 1221 l 870 1221 l 870 -353 l 696 -353 l 696 -526 m 2 -173 l 166 -173 l 166 -526 l 2 -526 l 2 -173 m -8 169 l 166 169 l 166 -6 l -8 -6 l -8 169 m 696 -353 l 870 -353 l 870 -521 l 696 -521 l 696 -353 "},"\"":{"x_min":-8,"x_max":870,"ha":1042,"o":"m 870 1038 l 513 1038 l 513 1742 l 870 1742 l 870 1038 m 349 1038 l -8 1038 l -8 1742 l 349 1742 l 349 1038 "},"g":{"x_min":-8,"x_max":870,"ha":1042,"o":"m 349 352 l 513 352 l 513 864 l 349 864 l 349 352 m 696 -526 l 166 -526 l 166 -169 l 513 -169 l 513 -6 l 166 -6 l 166 169 l -8 169 l -8 1047 l 166 1047 l 166 1221 l 870 1221 l 870 -353 l 696 -353 l 696 -526 m 2 1215 l 166 1215 l 166 1047 l 2 1047 l 2 1215 m 696 -353 l 870 -353 l 870 -521 l 696 -521 l 696 -353 m 2 -173 l 166 -173 l 166 -526 l 2 -526 l 2 -173 m -8 169 l 166 169 l 166 -6 l -8 -6 l -8 169 "},"e":{"x_min":-8,"x_max":870,"ha":1042,"o":"m 349 864 l 349 700 l 513 700 l 513 864 l 349 864 m 166 -6 l 166 169 l -8 169 l -8 1047 l 166 1047 l 166 1221 l 696 1221 l 696 1047 l 870 1047 l 870 517 l 349 517 l 349 352 l 870 352 l 870 -6 l 166 -6 m 2 1215 l 166 1215 l 166 1047 l 2 1047 l 2 1215 m 696 1221 l 870 1221 l 870 1047 l 696 1047 l 696 1221 m -8 169 l 166 169 l 166 -6 l -8 -6 l -8 169 "},"J":{"x_min":-8,"x_max":1043,"ha":1215,"o":"m 166 -6 l 166 169 l -8 169 l -8 873 l 349 873 l 349 352 l 686 352 l 686 1742 l 1043 1742 l 1043 169 l 869 169 l 869 -6 l 166 -6 m -8 169 l 166 169 l 166 -6 l -8 -6 l -8 169 m 869 169 l 1043 169 l 1043 0 l 869 0 l 869 169 "},"|":{"x_min":-8,"x_max":349,"ha":521,"o":"m 349 -179 l -8 -179 l -8 1915 l 349 1915 l 349 -179 "},"^":{"x_min":-8,"x_max":1217,"ha":1389,"o":"m 522 1031 l -8 1031 l -8 1214 l 165 1214 l 165 1388 l 339 1388 l 339 1561 l 513 1561 l 513 1735 l 696 1735 l 696 1561 l 870 1561 l 870 1388 l 1043 1388 l 1043 1214 l 1217 1214 l 1217 1031 l 686 1031 l 686 1204 l 522 1204 l 522 1031 "},"q":{"x_min":-8,"x_max":870,"ha":1042,"o":"m 349 352 l 513 352 l 513 864 l 349 864 l 349 352 m 166 -6 l 166 169 l -8 169 l -8 1047 l 166 1047 l 166 1221 l 870 1221 l 870 -526 l 513 -526 l 513 -6 l 166 -6 m 2 1215 l 166 1215 l 166 1047 l 2 1047 l 2 1215 m -8 169 l 166 169 l 166 -6 l -8 -6 l -8 169 "},"b":{"x_min":-8,"x_max":870,"ha":1042,"o":"m 349 352 l 513 352 l 513 864 l 349 864 l 349 352 m -8 -6 l -8 1742 l 349 1742 l 349 1221 l 696 1221 l 696 1047 l 870 1047 l 870 169 l 696 169 l 696 -6 l -8 -6 m 696 1221 l 870 1221 l 870 1047 l 696 1047 l 696 1221 m 696 169 l 870 169 l 870 0 l 696 0 l 696 169 "},"D":{"x_min":-8,"x_max":1043,"ha":1215,"o":"m 349 352 l 686 352 l 686 1385 l 349 1385 l 349 352 m -8 -6 l -8 1742 l 869 1742 l 869 1568 l 1043 1568 l 1043 169 l 869 169 l 869 -6 l -8 -6 "},"z":{"x_min":-8,"x_max":870,"ha":1042,"o":"m -8 -6 l -8 700 l 513 700 l 513 864 l -8 864 l -8 1221 l 870 1221 l 870 517 l 349 517 l 349 352 l 870 352 l 870 -6 l -8 -6 "},"w":{"x_min":-8,"x_max":1391,"ha":1563,"o":"m 349 352 l 513 352 l 513 1221 l 870 1221 l 870 352 l 1034 352 l 1034 1221 l 1391 1221 l 1391 169 l 1217 169 l 1217 -6 l 165 -6 l 165 169 l -8 169 l -8 1221 l 349 1221 l 349 352 m -8 169 l 165 169 l 165 -6 l -8 -6 l -8 169 m 1217 169 l 1391 169 l 1391 0 l 1217 0 l 1217 169 "},"$":{"x_min":-8,"x_max":1043,"ha":1215,"o":"m 696 -179 l 339 -179 l 339 169 l -8 169 l -8 526 l 686 526 l 686 690 l -8 690 l -8 1568 l 339 1568 l 339 1915 l 696 1915 l 696 1568 l 1043 1568 l 1043 1211 l 349 1211 l 349 1047 l 1043 1047 l 1043 169 l 696 169 l 696 -179 "},"™":{"x_min":-8,"x_max":2259,"ha":2431,"o":"m 1217 864 l 860 864 l 860 1742 l 2259 1742 l 2259 864 l 1902 864 l 1902 1385 l 1738 1385 l 1738 864 l 1381 864 l 1381 1385 l 1217 1385 l 1217 864 m 523 864 l 166 864 l 166 1385 l -8 1385 l -8 1742 l 696 1742 l 696 1385 l 523 1385 l 523 864 "},"\\":{"x_min":-8,"x_max":1043.390625,"ha":1215,"o":"m 686 -6 l 1043 -6 l 1043 526 l 869 526 l 869 873 l 696 873 l 696 1220 l 522 1220 l 522 1568 l 348 1568 l 348 1742 l -8 1742 l -8 1384 l 165 1384 l 165 1037 l 339 1037 l 339 690 l 512 690 l 512 343 l 686 343 l 686 -6 "},"~":{"x_min":-8,"x_max":1391,"ha":1563,"o":"m 349 517 l -8 517 l -8 1221 l 869 1221 l 869 874 l 1034 874 l 1034 1221 l 1391 1221 l 1391 517 l 512 517 l 512 864 l 349 864 l 349 517 "},"-":{"x_min":-8,"x_max":869.78125,"ha":1042,"o":"m 869 510 l -8 510 l -8 867 l 869 867 l 869 510 "},"Q":{"x_min":-8,"x_max":1043,"ha":1215,"o":"m 349 352 l 686 352 l 686 1385 l 349 1385 l 349 352 m 166 -6 l 166 169 l -8 169 l -8 1568 l 166 1568 l 166 1742 l 869 1742 l 869 1568 l 1043 1568 l 1043 169 l 869 169 l 869 -6 l 166 -6 m 349 -5 l 692 -5 l 692 -347 l 349 -347 l 349 -5 m 2 1736 l 166 1736 l 166 1568 l 2 1568 l 2 1736 m 869 1742 l 1043 1742 l 1043 1568 l 869 1568 l 869 1742 m 869 169 l 1043 169 l 1043 0 l 869 0 l 869 169 m -8 169 l 166 169 l 166 -6 l -8 -6 l -8 169 "},"M":{"x_min":-8,"x_max":1737,"ha":1910,"o":"m 349 -6 l -8 -6 l -8 1742 l 1737 1742 l 1737 -6 l 1380 -6 l 1380 1385 l 1043 1385 l 1043 -6 l 686 -6 l 686 1385 l 349 1385 l 349 -6 "},"C":{"x_min":-8,"x_max":1043,"ha":1215,"o":"m 166 -6 l 166 169 l -8 169 l -8 1568 l 166 1568 l 166 1742 l 869 1742 l 869 1568 l 1043 1568 l 1043 1037 l 686 1037 l 686 1385 l 349 1385 l 349 352 l 686 352 l 686 700 l 1043 700 l 1043 169 l 869 169 l 869 -6 l 166 -6 m 2 1736 l 166 1736 l 166 1568 l 2 1568 l 2 1736 m -8 169 l 166 169 l 166 -6 l -8 -6 l -8 169 m 869 174 l 1043 174 l 1043 0 l 869 0 l 869 174 m 869 1736 l 1043 1736 l 1043 1568 l 869 1568 l 869 1736 "},"[":{"x_min":-8,"x_max":523,"ha":694,"o":"m 523 -179 l 166 -179 l 166 -6 l -8 -6 l -8 1742 l 166 1742 l 166 1915 l 523 1915 l 523 1558 l 349 1558 l 349 179 l 523 179 l 523 -179 m -3 1910 l 166 1910 l 166 1741 l -3 1741 l -3 1910 m -8 -5 l 166 -5 l 166 -179 l -8 -179 l -8 -5 "},"L":{"x_min":-8,"x_max":869.78125,"ha":1042,"o":"m -8 -6 l -8 1742 l 349 1742 l 349 352 l 869 352 l 869 -6 l -8 -6 "},"!":{"x_min":-8,"x_max":349,"ha":521,"o":"m 349 516 l -8 516 l -8 1742 l 349 1742 l 349 516 m 349 -6 l -8 -6 l -8 352 l 349 352 l 349 -6 "}," ":{"x_min":0,"x_max":0,"ha":521},"{":{"x_min":-8,"x_max":696.171875,"ha":868,"o":"m 696 -179 l 166 -179 l 166 690 l -8 690 l -8 1047 l 166 1047 l 166 1915 l 696 1915 l 696 1558 l 523 1558 l 523 179 l 696 179 l 696 -179 "},"X":{"x_min":-8,"x_max":1043,"ha":1215,"o":"m 349 -6 l -8 -6 l -8 700 l 166 700 l 166 1037 l -8 1037 l -8 1742 l 349 1742 l 349 1047 l 686 1047 l 686 1742 l 1043 1742 l 1043 1037 l 869 1037 l 869 700 l 1043 700 l 1043 -6 l 686 -6 l 686 690 l 349 690 l 349 -6 m 2 868 l 166 868 l 166 700 l 2 700 l 2 868 m 869 868 l 1043 868 l 1043 694 l 869 694 l 869 868 "},"P":{"x_min":-8,"x_max":1043,"ha":1215,"o":"m 349 1385 l 349 1047 l 686 1047 l 686 1385 l 349 1385 m 349 -6 l -8 -6 l -8 1742 l 869 1742 l 869 1568 l 1043 1568 l 1043 863 l 869 863 l 869 690 l 349 690 l 349 -6 m 869 1742 l 1043 1742 l 1043 1568 l 869 1568 l 869 1742 m 869 863 l 1043 863 l 1043 694 l 869 694 l 869 863 "},"%":{"x_min":-8,"x_max":1390.609375,"ha":1563,"o":"m 175 520 l 339 520 l 339 700 l 348 700 l 348 868 l 513 868 l 513 1047 l 523 1047 l 523 1211 l -8 1211 l -8 1742 l 523 1742 l 523 1211 l 686 1211 l 686 1394 l 696 1394 l 696 1562 l 860 1562 l 860 1742 l 1217 1742 l 1217 1385 l 1043 1385 l 1043 1037 l 870 1037 l 870 690 l 696 690 l 696 343 l 523 343 l 523 -6 l 166 -6 l 166 352 l 175 352 l 175 520 m 860 -6 l 860 526 l 1390 526 l 1390 -6 l 860 -6 "},"#":{"x_min":-8,"x_max":1217,"ha":1389,"o":"m 523 700 l 686 700 l 686 864 l 523 864 l 523 700 m 166 343 l -8 343 l -8 700 l 166 700 l 166 864 l -8 864 l -8 1221 l 166 1221 l 166 1568 l 523 1568 l 523 1221 l 686 1221 l 686 1568 l 1043 1568 l 1043 1221 l 1217 1221 l 1217 864 l 1043 864 l 1043 700 l 1217 700 l 1217 343 l 1043 343 l 1043 -6 l 686 -6 l 686 343 l 523 343 l 523 -6 l 166 -6 l 166 343 "},"_":{"x_min":-8,"x_max":870,"ha":1042,"o":"m 696 -353 l -8 -353 l -8 -169 l 696 -169 l 696 -353 m -8 -353 l 696 -353 l 696 -521 l -8 -521 l -8 -353 m 696 -169 l 870 -169 l 870 -521 l 696 -521 l 696 -169 "},"+":{"x_min":-8,"x_max":1043.390625,"ha":1215,"o":"m 339 517 l -8 517 l -8 874 l 339 874 l 339 1394 l 696 1394 l 696 874 l 1043 874 l 1043 517 l 696 517 l 696 -6 l 339 -6 l 339 517 "},")":{"x_min":-8,"x_max":522.546875,"ha":694,"o":"m -8 -179 l 348 -179 l 348 -5 l 522 -5 l 522 1741 l 348 1741 l 348 1915 l -8 1915 l -8 1558 l 165 1558 l 165 179 l -8 179 l -8 -179 "},"'":{"x_min":-8,"x_max":349,"ha":521,"o":"m 349 1038 l -8 1038 l -8 1742 l 349 1742 l 349 1038 "},"}":{"x_min":-8,"x_max":696.171875,"ha":868,"o":"m -8 -179 l 522 -179 l 522 690 l 696 690 l 696 1047 l 522 1047 l 522 1915 l -8 1915 l -8 1558 l 165 1558 l 165 179 l -8 179 l -8 -179 "},"a":{"x_min":-8,"x_max":870,"ha":1042,"o":"m 349 517 l 349 352 l 513 352 l 513 517 l 349 517 m -8 -6 l -8 700 l 513 700 l 513 864 l -8 864 l -8 1221 l 870 1221 l 870 -6 l -8 -6 "},"T":{"x_min":-8,"x_max":1043.390625,"ha":1215,"o":"m 696 -6 l 339 -6 l 339 1385 l -8 1385 l -8 1742 l 1043 1742 l 1043 1385 l 696 1385 l 696 -6 "},"=":{"x_min":-8,"x_max":869.78125,"ha":1042,"o":"m 869 683 l -8 683 l -8 1040 l 869 1040 l 869 683 m 869 163 l -8 163 l -8 520 l 869 520 l 869 163 "},"N":{"x_min":-8,"x_max":1043,"ha":1215,"o":"m 349 -6 l -8 -6 l -8 1742 l 1043 1742 l 1043 -6 l 686 -6 l 686 1385 l 349 1385 l 349 -6 "},"2":{"x_min":-8,"x_max":870,"ha":1042,"o":"m 870 -6 l -8 -6 l -8 1047 l 513 1047 l 513 1385 l -8 1385 l -8 1742 l 870 1742 l 870 690 l 349 690 l 349 352 l 870 352 l 870 -6 "},"j":{"x_min":-8,"x_max":523,"ha":694,"o":"m 523 1385 l 166 1385 l 166 1742 l 523 1742 l 523 1385 m 349 -526 l -8 -526 l -8 -169 l 166 -169 l 166 1221 l 523 1221 l 523 -353 l 349 -353 l 349 -526 m 349 -353 l 523 -353 l 523 -521 l 349 -521 l 349 -353 "},"Z":{"x_min":-8,"x_max":1043,"ha":1215,"o":"m 1043 -6 l -8 -6 l -8 700 l 166 700 l 166 873 l 339 873 l 339 1047 l 513 1047 l 513 1221 l 686 1221 l 686 1385 l -8 1385 l -8 1742 l 1043 1742 l 1043 1211 l 870 1211 l 870 1038 l 696 1038 l 696 864 l 523 864 l 523 690 l 349 690 l 349 352 l 1043 352 l 1043 -6 m 349 690 l 523 690 l 523 521 l 349 521 l 349 690 m 523 864 l 696 864 l 696 695 l 523 695 l 523 864 m 696 1038 l 870 1038 l 870 869 l 696 869 l 696 1038 m 870 1211 l 1043 1211 l 1043 1042 l 870 1042 l 870 1211 "},"u":{"x_min":-8,"x_max":870,"ha":1042,"o":"m 166 -6 l 166 169 l -8 169 l -8 1221 l 349 1221 l 349 352 l 513 352 l 513 1221 l 870 1221 l 870 169 l 696 169 l 696 -6 l 166 -6 m -8 169 l 166 169 l 166 -6 l -8 -6 l -8 169 m 696 169 l 870 169 l 870 0 l 696 0 l 696 169 "},"1":{"x_min":-8,"x_max":523,"ha":694,"o":"m 523 -6 l 166 -6 l 166 1385 l -8 1385 l -8 1742 l 523 1742 l 523 -6 "},"k":{"x_min":-8,"x_max":870,"ha":1042,"o":"m 870 -6 l 513 -6 l 513 517 l 349 517 l 349 -6 l -8 -6 l -8 1742 l 349 1742 l 349 874 l 513 874 l 513 1221 l 870 1221 l 870 864 l 696 864 l 696 526 l 870 526 l 870 -6 m 696 694 l 870 694 l 870 526 l 696 526 l 696 694 "},"€":{"x_min":-8,"x_max":1217,"ha":1389,"o":"m 166 -6 l 166 690 l -8 690 l -8 1047 l 166 1047 l 166 1742 l 1217 1742 l 1217 1211 l 860 1211 l 860 1385 l 523 1385 l 523 1047 l 869 1047 l 869 690 l 523 690 l 523 352 l 860 352 l 860 526 l 1217 526 l 1217 -6 l 166 -6 "},"<":{"x_min":-8,"x_max":1043.390625,"ha":1215,"o":"m 1043 -6 l 512 -6 l 512 169 l 339 169 l 339 343 l 165 343 l 165 517 l -8 517 l -8 700 l 165 700 l 165 874 l 339 874 l 339 1047 l 512 1047 l 512 1221 l 1043 1221 l 1043 1038 l 869 1038 l 869 864 l 696 864 l 696 690 l 522 690 l 522 526 l 696 526 l 696 352 l 869 352 l 869 179 l 1043 179 l 1043 -6 "},"t":{"x_min":-8,"x_max":696.171875,"ha":868,"o":"m 166 -6 l 166 169 l -8 169 l -8 1568 l 349 1568 l 349 1221 l 696 1221 l 696 864 l 349 864 l 349 352 l 696 352 l 696 -6 l 166 -6 m -8 169 l 166 169 l 166 -6 l -8 -6 l -8 169 "},"W":{"x_min":-8,"x_max":1391,"ha":1563,"o":"m 349 352 l 513 352 l 513 1742 l 870 1742 l 870 352 l 1034 352 l 1034 1742 l 1391 1742 l 1391 169 l 1217 169 l 1217 -6 l 165 -6 l 165 169 l -8 169 l -8 1742 l 349 1742 l 349 352 m -8 169 l 165 169 l 165 -6 l -8 -6 l -8 169 m 1217 169 l 1391 169 l 1391 0 l 1217 0 l 1217 169 "},"v":{"x_min":-8,"x_max":870,"ha":1042,"o":"m -8 -6 l -8 1221 l 349 1221 l 349 352 l 513 352 l 513 1221 l 870 1221 l 870 343 l 696 343 l 696 169 l 522 169 l 522 -6 l -8 -6 "},">":{"x_min":-8,"x_max":1043.390625,"ha":1215,"o":"m -8 -6 l 522 -6 l 522 169 l 696 169 l 696 343 l 869 343 l 869 516 l 1043 516 l 1043 700 l 869 700 l 869 873 l 696 873 l 696 1047 l 522 1047 l 522 1221 l -8 1221 l -8 1037 l 165 1037 l 165 864 l 339 864 l 339 690 l 512 690 l 512 526 l 339 526 l 339 352 l 165 352 l 165 179 l -8 179 l -8 -6 "},"s":{"x_min":-8,"x_max":870,"ha":1042,"o":"m 696 -6 l -8 -6 l -8 352 l 513 352 l 513 517 l 166 517 l 166 690 l -8 690 l -8 1047 l 166 1047 l 166 1221 l 870 1221 l 870 864 l 349 864 l 349 700 l 696 700 l 696 526 l 870 526 l 870 169 l 696 169 l 696 -6 m 2 1215 l 166 1215 l 166 1047 l 2 1047 l 2 1215 m 2 695 l 166 695 l 166 517 l 2 517 l 2 695 m 696 700 l 870 700 l 870 526 l 696 526 l 696 700 m 696 169 l 870 169 l 870 0 l 696 0 l 696 169 "},"B":{"x_min":-8,"x_max":1043,"ha":1215,"o":"m 349 1385 l 349 1047 l 513 1047 l 513 1385 l 349 1385 m 349 352 l 686 352 l 686 690 l 349 690 l 349 352 m -8 -6 l -8 1742 l 870 1742 l 870 873 l 1043 873 l 1043 -6 l -8 -6 "},"?":{"x_min":-8,"x_max":1043,"ha":1215,"o":"m 696 516 l 339 516 l 339 1047 l 686 1047 l 686 1385 l 349 1385 l 349 1211 l -8 1211 l -8 1742 l 1043 1742 l 1043 690 l 696 690 l 696 516 m 696 -6 l 339 -6 l 339 352 l 696 352 l 696 -6 "},"H":{"x_min":-8,"x_max":1043,"ha":1215,"o":"m 349 -6 l -8 -6 l -8 1742 l 349 1742 l 349 1047 l 686 1047 l 686 1742 l 1043 1742 l 1043 -6 l 686 -6 l 686 690 l 349 690 l 349 -6 "},"c":{"x_min":-8,"x_max":870,"ha":1042,"o":"m 166 -6 l 166 169 l -8 169 l -8 1047 l 166 1047 l 166 1221 l 696 1221 l 696 1047 l 870 1047 l 870 690 l 513 690 l 513 864 l 349 864 l 349 352 l 513 352 l 513 526 l 870 526 l 870 169 l 696 169 l 696 -6 l 166 -6 m 2 1215 l 176 1215 l 176 1041 l 2 1041 l 2 1215 m 696 1215 l 870 1215 l 870 1047 l 696 1047 l 696 1215 m 696 169 l 870 169 l 870 0 l 696 0 l 696 169 m -8 169 l 166 169 l 166 -6 l -8 -6 l -8 169 "},"&":{"x_min":-8,"x_max":1391,"ha":1563,"o":"m 349 1047 l 513 1047 l 513 1385 l 349 1385 l 349 1047 m 349 690 l 349 352 l 513 352 l 513 690 l 349 690 m -8 -6 l -8 1742 l 870 1742 l 870 700 l 1034 700 l 1034 874 l 1391 874 l 1391 517 l 1217 517 l 1217 352 l 1391 352 l 1391 -6 l 1034 -6 l 1034 169 l 870 169 l 870 -6 l -8 -6 "},"I":{"x_min":-8,"x_max":349,"ha":521,"o":"m 349 -6 l -8 -6 l -8 1742 l 349 1742 l 349 -6 "},"G":{"x_min":-8,"x_max":1043,"ha":1215,"o":"m 166 -6 l 166 169 l -8 169 l -8 1568 l 166 1568 l 166 1742 l 1043 1742 l 1043 1385 l 349 1385 l 349 352 l 686 352 l 686 690 l 512 690 l 512 1047 l 1043 1047 l 1043 169 l 869 169 l 869 -6 l 166 -6 m 2 1736 l 166 1736 l 166 1568 l 2 1568 l 2 1736 m 869 169 l 1043 169 l 1043 0 l 869 0 l 869 169 m -8 169 l 166 169 l 166 -6 l -8 -6 l -8 169 "},"(":{"x_min":-8,"x_max":523,"ha":694,"o":"m 523 -179 l 166 -179 l 166 -6 l -8 -6 l -8 1742 l 166 1742 l 166 1915 l 523 1915 l 523 1558 l 349 1558 l 349 179 l 523 179 l 523 -179 "},"`":{"x_min":-8,"x_max":523,"ha":694,"o":"m 523 1558 l 166 1558 l 166 1732 l -8 1732 l -8 1915 l 349 1915 l 349 1742 l 523 1742 l 523 1558 "},"U":{"x_min":-8,"x_max":1043,"ha":1215,"o":"m 166 -6 l 166 169 l -8 169 l -8 1742 l 349 1742 l 349 352 l 686 352 l 686 1742 l 1043 1742 l 1043 169 l 869 169 l 869 -6 l 166 -6 m -8 169 l 166 169 l 166 -6 l -8 -6 l -8 169 m 869 169 l 1043 169 l 1043 0 l 869 0 l 869 169 "},"F":{"x_min":-8,"x_max":869.78125,"ha":1042,"o":"m 349 -6 l -8 -6 l -8 1742 l 869 1742 l 869 1385 l 349 1385 l 349 1047 l 869 1047 l 869 690 l 349 690 l 349 -6 "},"r":{"x_min":-8,"x_max":696.171875,"ha":868,"o":"m 349 -6 l -8 -6 l -8 1221 l 696 1221 l 696 864 l 349 864 l 349 -6 "},":":{"x_min":-8,"x_max":349,"ha":521,"o":"m 349 690 l -8 690 l -8 1047 l 349 1047 l 349 690 m 349 169 l -8 169 l -8 526 l 349 526 l 349 169 "},"x":{"x_min":-8,"x_max":870,"ha":1042,"o":"m 349 -6 l -8 -6 l -8 526 l 166 526 l 166 864 l -8 864 l -8 1221 l 349 1221 l 349 874 l 513 874 l 513 1221 l 870 1221 l 870 864 l 696 864 l 696 526 l 870 526 l 870 -6 l 513 -6 l 513 517 l 349 517 l 349 -6 m 696 864 l 870 864 l 870 695 l 696 695 l 696 864 m -8 864 l 175 864 l 175 695 l -8 695 l -8 864 m 349 517 l 523 517 l 523 348 l 349 348 l 349 517 "},"*":{"x_min":-8,"x_max":1217,"ha":1389,"o":"m 523 510 l 166 510 l 166 693 l 339 693 l 339 857 l -8 857 l -8 1040 l 339 1040 l 339 1205 l 166 1205 l 166 1388 l 523 1388 l 523 1214 l 686 1214 l 686 1388 l 1043 1388 l 1043 1205 l 869 1205 l 869 1040 l 1217 1040 l 1217 857 l 869 857 l 869 693 l 1043 693 l 1043 510 l 686 510 l 686 683 l 523 683 l 523 510 "},"V":{"x_min":-8,"x_max":1043,"ha":1215,"o":"m -8 -6 l -8 1742 l 349 1742 l 349 352 l 512 352 l 512 526 l 686 526 l 686 1742 l 1043 1742 l 1043 343 l 869 343 l 869 169 l 696 169 l 696 -6 l -8 -6 "},"h":{"x_min":-8,"x_max":870,"ha":1042,"o":"m 349 -6 l -8 -6 l -8 1742 l 349 1742 l 349 1221 l 696 1221 l 696 1047 l 870 1047 l 870 -6 l 513 -6 l 513 864 l 349 864 l 349 -6 m 696 1221 l 870 1221 l 870 1047 l 696 1047 l 696 1221 "},"0":{"x_min":-8,"x_max":870,"ha":1042,"o":"m 349 352 l 513 352 l 513 1385 l 349 1385 l 349 352 m -8 -6 l -8 1742 l 870 1742 l 870 -6 l -8 -6 "},".":{"x_min":-8,"x_max":349,"ha":521,"o":"m 349 -6 l -8 -6 l -8 353 l 349 353 l 349 -6 "},"@":{"x_min":-8,"x_max":1043,"ha":1215,"o":"m -8 -6 l -8 1568 l 1043 1568 l 1043 516 l 512 516 l 512 1047 l 686 1047 l 686 1211 l 349 1211 l 349 352 l 1043 352 l 1043 -6 l -8 -6 "},"f":{"x_min":-8,"x_max":696.171875,"ha":868,"o":"m 349 -6 l -8 -6 l -8 1568 l 166 1568 l 166 1742 l 696 1742 l 696 1385 l 349 1385 l 349 1221 l 696 1221 l 696 864 l 349 864 l 349 -6 m 2 1736 l 166 1736 l 166 1568 l 2 1568 l 2 1736 "},";":{"x_min":-8,"x_max":349,"ha":521,"o":"m 349 -353 l -8 -353 l -8 352 l 349 352 l 349 -353 m -4 868 l 345 868 l 345 521 l -4 521 l -4 868 "},"i":{"x_min":-8,"x_max":349,"ha":521,"o":"m 349 1385 l -8 1385 l -8 1742 l 349 1742 l 349 1385 m 349 -6 l -8 -6 l -8 1221 l 349 1221 l 349 -6 "},"6":{"x_min":-8,"x_max":870,"ha":1042,"o":"m 349 352 l 513 352 l 513 690 l 349 690 l 349 352 m -8 -6 l -8 1742 l 870 1742 l 870 1385 l 349 1385 l 349 1047 l 870 1047 l 870 -6 l -8 -6 "},"A":{"x_min":-8,"x_max":1043,"ha":1215,"o":"m 349 1385 l 349 1047 l 686 1047 l 686 1385 l 349 1385 m 349 -6 l -8 -6 l -8 1742 l 1043 1742 l 1043 -6 l 686 -6 l 686 690 l 349 690 l 349 -6 "},"n":{"x_min":-8,"x_max":870,"ha":1042,"o":"m 349 -6 l -8 -6 l -8 1221 l 696 1221 l 696 1047 l 870 1047 l 870 -6 l 513 -6 l 513 864 l 349 864 l 349 -6 m 696 1221 l 870 1221 l 870 1047 l 696 1047 l 696 1221 "},"O":{"x_min":-8,"x_max":1043,"ha":1215,"o":"m 349 352 l 686 352 l 686 1385 l 349 1385 l 349 352 m 166 -6 l 166 169 l -8 169 l -8 1568 l 166 1568 l 166 1742 l 869 1742 l 869 1568 l 1043 1568 l 1043 169 l 869 169 l 869 -6 l 166 -6 m 2 1736 l 166 1736 l 166 1568 l 2 1568 l 2 1736 m 869 1742 l 1043 1742 l 1043 1568 l 869 1568 l 869 1742 m 869 169 l 1043 169 l 1043 0 l 869 0 l 869 169 m -8 169 l 166 169 l 166 -6 l -8 -6 l -8 169 "},"3":{"x_min":-8,"x_max":870,"ha":1042,"o":"m -8 -6 l -8 352 l 513 352 l 513 690 l -8 690 l -8 1047 l 513 1047 l 513 1385 l -8 1385 l -8 1742 l 870 1742 l 870 -6 l -8 -6 "},"]":{"x_min":-8,"x_max":522.546875,"ha":694,"o":"m -8 -179 l 348 -179 l 348 -5 l 522 -5 l 522 1741 l 348 1741 l 348 1915 l -8 1915 l -8 1558 l 165 1558 l 165 179 l -8 179 l -8 -179 m 518 1909 l 348 1909 l 348 1742 l 518 1742 l 518 1909 m 522 -6 l 348 -6 l 348 -179 l 522 -179 l 522 -6 "},"m":{"x_min":-8,"x_max":1391,"ha":1563,"o":"m 349 -6 l -8 -6 l -8 1221 l 1217 1221 l 1217 1047 l 1391 1047 l 1391 -6 l 1034 -6 l 1034 864 l 870 864 l 870 -6 l 513 -6 l 513 864 l 349 864 l 349 -6 m 1217 1221 l 1391 1221 l 1391 1042 l 1217 1042 l 1217 1221 "},"9":{"x_min":-8,"x_max":870,"ha":1042,"o":"m 349 1047 l 513 1047 l 513 1385 l 349 1385 l 349 1047 m -8 -6 l -8 352 l 513 352 l 513 690 l -8 690 l -8 1742 l 870 1742 l 870 -6 l -8 -6 "},"l":{"x_min":-8,"x_max":349,"ha":521,"o":"m 349 -6 l -8 -6 l -8 1742 l 349 1742 l 349 -6 "},"8":{"x_min":-8,"x_max":870,"ha":1042,"o":"m -8 -6 l -8 1742 l 870 1742 l 870 -6 l -8 -6 m 513 694 l 349 694 l 349 352 l 513 352 l 513 694 m 349 1041 l 513 1041 l 513 1385 l 349 1385 l 349 1041 "},"p":{"x_min":-8,"x_max":870,"ha":1042,"o":"m 349 864 l 349 352 l 513 352 l 513 864 l 349 864 m 349 -526 l -8 -526 l -8 1221 l 696 1221 l 696 1047 l 870 1047 l 870 169 l 696 169 l 696 -6 l 349 -6 l 349 -526 m 696 1221 l 870 1221 l 870 1047 l 696 1047 l 696 1221 m 696 173 l 870 173 l 870 -6 l 696 -6 l 696 173 "},"4":{"x_min":-8,"x_max":870,"ha":1042,"o":"m 513 690 l -8 690 l -8 1742 l 349 1742 l 349 1047 l 513 1047 l 513 1742 l 870 1742 l 870 -6 l 513 -6 l 513 690 "},"R":{"x_min":-8,"x_max":1043,"ha":1215,"o":"m 349 1385 l 349 1047 l 686 1047 l 686 1385 l 349 1385 m 349 -6 l -8 -6 l -8 1742 l 869 1742 l 869 1568 l 1043 1568 l 1043 863 l 869 863 l 869 700 l 1043 700 l 1043 -6 l 686 -6 l 686 690 l 349 690 l 349 -6 m 869 1742 l 1043 1742 l 1043 1568 l 869 1568 l 869 1742 "},"o":{"x_min":-8,"x_max":870,"ha":1042,"o":"m 349 352 l 513 352 l 513 864 l 349 864 l 349 352 m 166 -6 l 166 169 l -8 169 l -8 1047 l 166 1047 l 166 1221 l 696 1221 l 696 1047 l 870 1047 l 870 169 l 696 169 l 696 -6 l 166 -6 m 2 1215 l 176 1215 l 176 1041 l 2 1041 l 2 1215 m 696 1221 l 870 1221 l 870 1041 l 696 1041 l 696 1221 m 696 169 l 870 169 l 870 0 l 696 0 l 696 169 m -8 169 l 166 169 l 166 -6 l -8 -6 l -8 169 "},"5":{"x_min":-8,"x_max":870,"ha":1042,"o":"m 870 -6 l -8 -6 l -8 352 l 513 352 l 513 690 l -8 690 l -8 1742 l 870 1742 l 870 1385 l 349 1385 l 349 1047 l 870 1047 l 870 -6 "}}}
